<svg width="203" height="265" viewBox="0 0 203 265" fill="none" xmlns="http://www.w3.org/2000/svg">
<path d="M5 5H198V199.379L106.451 259.116L5 199.232V5Z" fill="white" stroke="black" stroke-width="10"/>
<path d="M69.4075 89.96L41.5675 117.416V123.56H60.7675V107.24L68.4475 99.56V137H60.7675V130.28H34.8475V117.224C34.8475 116.456 34.8475 115.848 34.8475 115.4C34.9115 114.952 35.0075 114.568 35.1355 114.248C35.2635 113.864 35.4555 113.544 35.7115 113.288C35.9675 112.968 36.2875 112.584 36.6715 112.136L58.6555 89.96H69.4075ZM119.283 89.96L91.4425 117.416V123.56H110.643V107.24L118.323 99.56V137H110.643V130.28H84.7225V117.224C84.7225 116.456 84.7225 115.848 84.7225 115.4C84.7865 114.952 84.8825 114.568 85.0105 114.248C85.1385 113.864 85.3305 113.544 85.5865 113.288C85.8425 112.968 86.1625 112.584 86.5465 112.136L108.531 89.96H119.283ZM168.198 137H134.598V126.92L160.518 107.912V96.68H142.278V103.4H134.598V96.68C134.598 94.824 135.238 93.256 136.518 91.976C137.862 90.632 139.462 89.96 141.318 89.96H161.478C163.334 89.96 164.902 90.632 166.182 91.976C167.526 93.256 168.198 94.824 168.198 96.68V110.6L142.758 129.32V130.28H168.198V137Z" fill="black"/>
<path d="M54 25L58.4903 38.8197H73.0211L61.2654 47.3607L65.7557 61.1803L54 52.6393L42.2443 61.1803L46.7346 47.3607L34.9789 38.8197H49.5097L54 25Z" fill="black"/>
<path d="M159 25L163.49 38.8197H178.021L166.265 47.3607L170.756 61.1803L159 52.6393L147.244 61.1803L151.735 47.3607L139.979 38.8197H154.51L159 25Z" fill="black"/>
<path d="M106 212C117.046 212 126 203.046 126 192C126 180.954 117.046 172 106 172C94.9543 172 86 180.954 86 192C86 203.046 94.9543 212 106 212Z" fill="black"/>
<path d="M105.381 173.897C101.196 174.041 97.1891 175.63 94.041 178.392H99.608L105.381 175.423V173.897V173.897ZM106.618 173.897V175.423L112.392 178.392H117.959C114.811 175.63 110.804 174.041 106.618 173.897V173.897ZM92.7627 179.629C90.87 181.635 89.4597 184.047 88.639 186.68L91.9379 192.371L96.6802 191.629L101.01 184.165L99.2781 179.629H92.7627V179.629ZM112.721 179.629L110.989 184.165L115.319 191.629L120.062 192.371L123.319 186.722C122.516 184.077 121.12 181.651 119.237 179.629H112.721V179.629ZM102.412 184.99L98.2472 192.247L101.917 198.598H110.082L113.752 192.247L109.587 184.99H102.412ZM88.2266 188.412C87.984 189.593 87.8597 190.795 87.8555 192C87.8589 194.978 88.5953 197.91 89.9998 200.536L91.5256 199.629L91.2369 193.649L88.2266 188.412V188.412ZM123.773 188.454L120.763 193.649L120.474 199.629L122 200.536C123.404 197.91 124.141 194.978 124.144 192C124.137 190.808 124.013 189.621 123.773 188.454V188.454ZM101.917 200.247L98.7421 204.165L101.917 209.649C103.255 209.969 104.625 210.135 106 210.144C107.375 210.135 108.745 209.969 110.082 209.649L113.258 204.165L110.082 200.247H101.917ZM92.0617 200.783L90.6184 201.608C92.835 205.167 96.2155 207.848 100.185 209.196L97.2988 204.124L92.0617 200.783V200.783ZM119.938 200.783L114.701 204.124L111.814 209.155C115.778 207.817 119.157 205.151 121.381 201.608L119.938 200.783Z" fill="white"/>
</svg>
