<svg width="512" height="395" viewBox="0 0 512 395" fill="none" xmlns="http://www.w3.org/2000/svg">
<rect y="5" width="511.999" height="389.818" fill="black"/>
<path d="M506.182 143.473V5H5.81885V145.8" stroke="white" stroke-width="10"/>
<path d="M180.75 44.5L137.25 87.4V97H167.25V71.5L179.25 59.5V118H167.25V107.5H126.75V87.1C126.75 85.9 126.75 84.95 126.75 84.25C126.85 83.55 127 82.95 127.2 82.45C127.4 81.85 127.7 81.35 128.1 80.95C128.5 80.45 129 79.85 129.6 79.15L163.95 44.5H180.75ZM258.68 44.5L215.18 87.4V97H245.18V71.5L257.18 59.5V118H245.18V107.5H204.68V87.1C204.68 85.9 204.68 84.95 204.68 84.25C204.78 83.55 204.93 82.95 205.13 82.45C205.33 81.85 205.63 81.35 206.03 80.95C206.43 80.45 206.93 79.85 207.53 79.15L241.88 44.5H258.68ZM335.109 118H282.609V102.25L323.109 72.55V55H294.609V65.5H282.609V55C282.609 52.1 283.609 49.65 285.609 47.65C287.709 45.55 290.209 44.5 293.109 44.5H324.609C327.509 44.5 329.959 45.55 331.959 47.65C334.059 49.65 335.109 52.1 335.109 55V76.75L295.359 106V107.5H335.109V118Z" fill="white"/>
<rect x="507" y="147.309" width="242.509" height="502" transform="rotate(90 507 147.309)" fill="black" stroke="white" stroke-width="10"/>
<rect x="446.107" y="319.115" width="101.104" height="60.8923" transform="rotate(-90 446.107 319.115)" stroke="white" stroke-width="10"/>
<rect x="493.368" y="288.814" width="40.5017" height="13.6307" transform="rotate(-90 493.368 288.814)" stroke="white" stroke-width="10"/>
<path d="M441.108 249.625C436.199 249.625 431.49 251.62 428.019 255.172C424.547 258.724 422.597 263.541 422.597 268.563C422.597 273.586 424.547 278.403 428.019 281.955C431.49 285.506 436.199 287.501 441.108 287.501" stroke="white" stroke-width="10"/>
<rect x="65.8926" y="218.011" width="101.104" height="60.8923" transform="rotate(90 65.8926 218.011)" stroke="white" stroke-width="10"/>
<rect x="18.6318" y="248.312" width="40.5017" height="13.6307" transform="rotate(90 18.6318 248.312)" stroke="white" stroke-width="10"/>
<path d="M70.8931 287.502C75.8024 287.502 80.5107 285.506 83.9821 281.955C87.4536 278.403 89.4038 273.586 89.4038 268.563C89.4038 263.541 87.4536 258.724 83.9821 255.172C80.5107 251.621 75.8024 249.625 70.8931 249.625" stroke="white" stroke-width="10"/>
<line x1="261.001" y1="142.309" x2="261.001" y2="394.818" stroke="white" stroke-width="10"/>
<path d="M261.982 297.891C244.792 297.891 231.094 284.371 231.094 267.982C231.094 251.593 244.792 238.073 261.982 238.073C279.172 238.073 292.87 251.593 292.87 267.982C292.87 284.371 279.172 297.891 261.982 297.891Z" stroke="white" stroke-width="10"/>
</svg>
