<svg width="4354" height="3349" viewBox="0 0 4354 3349" fill="none" xmlns="http://www.w3.org/2000/svg">
<rect x="4343.76" y="10.2729" width="3328.48" height="4333.03" transform="rotate(90 4343.76 10.2729)" fill="#00755E" stroke="white" stroke-width="20"/>
<rect x="3761.03" y="2401.18" width="1453.33" height="582.727" transform="rotate(-90 3761.03 2401.18)" stroke="white" stroke-width="20"/>
<rect x="4162.85" y="1999.36" width="649.697" height="180.909" transform="rotate(-90 4162.85 1999.36)" stroke="white" stroke-width="20"/>
<path d="M3751.03 1423.38C3709.29 1423.38 3669.26 1449.84 3639.75 1496.93C3610.23 1544.03 3593.65 1607.91 3593.65 1674.51C3593.65 1741.12 3610.23 1805 3639.75 1852.1C3669.26 1899.19 3709.29 1925.65 3751.03 1925.65" stroke="white" stroke-width="20"/>
<rect x="593.455" y="947.849" width="1453.33" height="582.727" transform="rotate(90 593.455 947.849)" stroke="white" stroke-width="20"/>
<rect x="191.636" y="1349.67" width="649.697" height="180.909" transform="rotate(90 191.636 1349.67)" stroke="white" stroke-width="20"/>
<path d="M603.455 1925.65C645.194 1925.65 685.224 1899.19 714.738 1852.1C744.253 1805 760.833 1741.12 760.833 1674.52C760.833 1607.91 744.253 1544.03 714.738 1496.94C685.224 1449.84 645.194 1423.38 603.455 1423.38" stroke="white" stroke-width="20"/>
<line x1="2187.24" y1="0.27295" x2="2187.24" y2="3348.76" stroke="white" stroke-width="20"/>
<circle cx="2177.24" cy="1674.52" r="324.848" transform="rotate(90 2177.24 1674.52)" stroke="white" stroke-width="20"/>
</svg>
