<svg width="400" height="334" viewBox="0 0 400 334" fill="none" xmlns="http://www.w3.org/2000/svg">
<rect x="7" y="5" width="386.367" height="121.6" fill="black" stroke="white" stroke-width="10"/>
<path d="M166.5 36.8167L132.425 70.4217V77.9417H155.925V57.9667L165.325 48.5667V94.3917H155.925V86.1667H124.2V70.1866C124.2 69.2466 124.2 68.5025 124.2 67.9542C124.278 67.4058 124.396 66.9358 124.552 66.5441C124.709 66.0741 124.944 65.6825 125.258 65.3691C125.571 64.9775 125.963 64.5075 126.433 63.9592L153.34 36.8167H166.5ZM227.545 36.8167L193.47 70.4217V77.9417H216.97V57.9667L226.37 48.5667V94.3917H216.97V86.1667H185.245V70.1866C185.245 69.2466 185.245 68.5025 185.245 67.9542C185.323 67.4058 185.441 66.9358 185.598 66.5441C185.754 66.0741 185.989 65.6825 186.303 65.3691C186.616 64.9775 187.008 64.5075 187.478 63.9592L214.385 36.8167H227.545ZM287.415 94.3917H246.29V82.0542L278.015 58.7892V45.0417H255.69V53.2667H246.29V45.0417C246.29 42.77 247.073 40.8508 248.64 39.2842C250.285 37.6392 252.243 36.8167 254.515 36.8167H279.19C281.461 36.8167 283.38 37.6392 284.947 39.2842C286.592 40.8508 287.415 42.77 287.415 45.0417V62.0792L256.277 84.9917V86.1667H287.415V94.3917Z" fill="white"/>
<path d="M394.45 329V140.217L5.91669 140.217V329H394.45Z" fill="black" stroke="white" stroke-width="10"/>
<path d="M5.91667 273.383L41.95 273.383L41.95 194.267L5.91667 194.267" stroke="white" stroke-width="10"/>
<path d="M6 250L22 250L22 218L6 218" stroke="white" stroke-width="10"/>
<path d="M42.333 248.317C46.1784 248.317 49.8671 246.754 52.5861 243.972C55.3058 241.189 56.8333 237.416 56.8333 233.482C56.8333 229.547 55.3058 225.774 52.5861 222.992C49.8671 220.21 46.1784 218.647 42.333 218.647" stroke="white" stroke-width="10"/>
<path d="M394.45 194.267H358.417V273.383H394.45" stroke="white" stroke-width="10"/>
<path d="M394 218H378V250H394" stroke="white" stroke-width="10"/>
<path d="M358.034 219.333C354.188 219.333 350.5 220.896 347.781 223.678C345.061 226.461 343.533 230.234 343.533 234.168C343.533 238.103 345.061 241.876 347.781 244.658C350.5 247.44 354.188 249.003 358.034 249.003" stroke="white" stroke-width="10"/>
<path d="M205.579 257.574C192.113 257.574 181.383 246.983 181.383 234.145C181.383 221.307 192.113 210.717 205.579 210.717C219.044 210.717 229.775 221.307 229.775 234.145C229.775 246.983 219.044 257.574 205.579 257.574Z" stroke="white" stroke-width="10"/>
<path d="M204.883 140.217L204.883 329" stroke="white" stroke-width="10"/>
</svg>
