<svg width="576" height="512" viewBox="0 0 576 512" fill="none" xmlns="http://www.w3.org/2000/svg">
<rect x="575.224" width="512" height="575.224" rx="63" transform="rotate(90 575.224 0)" fill="#4F8095"/>
<rect x="534.54" y="67.0605" width="377.879" height="494.242" transform="rotate(90 534.54 67.0605)" fill="#10B97C" stroke="white" stroke-width="10"/>
<rect x="472.221" y="338.833" width="165.667" height="64.8182" transform="rotate(-90 472.221 338.833)" stroke="white" stroke-width="5"/>
<rect x="518.767" y="292.288" width="72.5758" height="18.2727" transform="rotate(-90 518.767 292.288)" stroke="white" stroke-width="5"/>
<path d="M469.721 226.909C464.886 226.909 460.249 229.974 456.831 235.43C453.412 240.885 451.491 248.285 451.491 256C451.491 263.716 453.412 271.115 456.83 276.571C460.249 282.026 464.886 285.091 469.721 285.091" stroke="white" stroke-width="5"/>
<rect x="102.615" y="173.167" width="165.667" height="64.8182" transform="rotate(90 102.615 173.167)" stroke="white" stroke-width="5"/>
<rect x="56.0701" y="219.712" width="72.5758" height="18.2727" transform="rotate(90 56.0701 219.712)" stroke="white" stroke-width="5"/>
<path d="M105.116 285.091C109.951 285.091 114.588 282.026 118.006 276.57C121.425 271.115 123.346 263.715 123.346 256C123.346 248.285 121.425 240.885 118.006 235.43C114.588 229.974 109.951 226.909 105.116 226.909" stroke="white" stroke-width="5"/>
<line x1="289.918" y1="62.0605" x2="289.918" y2="449.939" stroke="white" stroke-width="5"/>
<circle cx="287.418" cy="256" r="36.2879" transform="rotate(90 287.418 256)" stroke="white" stroke-width="5"/>
<path d="M393.968 252.976C393.962 252.711 393.952 252.447 393.943 252.182C393.926 251.601 393.904 251.021 393.878 250.442C393.864 250.143 393.848 249.844 393.832 249.546C393.801 248.984 393.765 248.423 393.725 247.863C393.705 247.582 393.687 247.3 393.664 247.02C393.611 246.346 393.551 245.675 393.485 245.005C393.471 244.85 393.458 244.695 393.442 244.541C393.359 243.724 393.265 242.91 393.163 242.099C393.133 241.859 393.098 241.62 393.067 241.381C392.99 240.803 392.911 240.226 392.824 239.651C392.78 239.354 392.733 239.059 392.687 238.763C392.604 238.234 392.516 237.707 392.425 237.181C392.374 236.887 392.323 236.593 392.27 236.3C392.166 235.727 392.055 235.155 391.941 234.585C391.896 234.355 391.853 234.123 391.805 233.894C391.644 233.112 391.474 232.332 391.296 231.556C391.248 231.346 391.195 231.138 391.146 230.928C391.009 230.352 390.87 229.777 390.725 229.204C390.65 228.908 390.572 228.614 390.494 228.32C390.365 227.827 390.232 227.336 390.096 226.846C390.011 226.542 389.925 226.239 389.838 225.936C389.693 225.434 389.544 224.934 389.391 224.434C389.309 224.162 389.227 223.888 389.143 223.617C388.91 222.874 388.671 222.134 388.422 221.398C388.369 221.238 388.31 221.08 388.256 220.92C388.052 220.328 387.846 219.737 387.632 219.149C387.526 218.857 387.416 218.568 387.308 218.277C387.137 217.819 386.964 217.363 386.788 216.909C386.668 216.599 386.545 216.29 386.422 215.982C386.244 215.537 386.062 215.094 385.879 214.652C385.756 214.357 385.634 214.061 385.509 213.767C385.284 213.24 385.054 212.717 384.821 212.194C384.73 211.991 384.643 211.786 384.551 211.584C384.241 210.899 383.922 210.218 383.597 209.541C383.462 209.259 383.323 208.979 383.185 208.698C382.976 208.271 382.765 207.844 382.55 207.42C382.395 207.114 382.238 206.81 382.08 206.506C381.871 206.103 381.659 205.703 381.446 205.303C381.285 205.003 381.124 204.703 380.961 204.404C380.724 203.971 380.482 203.542 380.239 203.114C380.096 202.86 379.955 202.604 379.809 202.352C379.437 201.706 379.058 201.065 378.672 200.429C378.516 200.17 378.355 199.915 378.196 199.658C377.944 199.249 377.691 198.841 377.433 198.436C377.247 198.144 377.06 197.855 376.871 197.565C376.631 197.194 376.388 196.825 376.142 196.457C375.948 196.167 375.754 195.877 375.558 195.59C375.297 195.207 375.032 194.827 374.766 194.447C374.584 194.187 374.404 193.926 374.219 193.667C373.789 193.066 373.355 192.469 372.913 191.876C361.282 176.287 345.482 163.995 327.168 156.639C327.167 156.639 327.166 156.639 327.165 156.638C326.436 156.346 325.703 156.062 324.967 155.785C324.914 155.765 324.862 155.745 324.809 155.725C324.111 155.464 323.408 155.211 322.703 154.964C322.608 154.931 322.514 154.897 322.419 154.864C321.746 154.631 321.071 154.405 320.392 154.185C320.261 154.143 320.13 154.1 319.999 154.058C319.35 153.85 318.697 153.649 318.042 153.453C317.877 153.404 317.712 153.354 317.547 153.306C316.92 153.122 316.289 152.944 315.656 152.771C315.459 152.716 315.261 152.663 315.063 152.61C314.457 152.448 313.849 152.291 313.238 152.139C313.009 152.082 312.778 152.027 312.548 151.971C311.962 151.83 311.376 151.692 310.786 151.561C310.526 151.503 310.266 151.448 310.006 151.391C309.44 151.27 308.873 151.151 308.304 151.038C308.014 150.98 307.722 150.926 307.431 150.87C306.887 150.767 306.342 150.666 305.795 150.571C305.472 150.515 305.149 150.464 304.825 150.411C304.304 150.325 303.781 150.241 303.257 150.163C302.902 150.11 302.545 150.063 302.189 150.013C301.691 149.945 301.193 149.875 300.692 149.813C300.303 149.765 299.912 149.723 299.521 149.679C299.049 149.626 298.576 149.572 298.101 149.525C297.673 149.482 297.242 149.448 296.812 149.41C296.37 149.372 295.93 149.331 295.486 149.298C295.006 149.262 294.524 149.236 294.043 149.206C293.644 149.182 293.247 149.154 292.847 149.134C292.284 149.106 291.718 149.089 291.153 149.07C290.83 149.059 290.508 149.042 290.184 149.034C289.291 149.012 288.397 149 287.5 149C286.603 149 285.709 149.012 284.817 149.034C284.492 149.042 284.17 149.058 283.846 149.069C283.281 149.088 282.716 149.106 282.154 149.133C281.753 149.153 281.355 149.182 280.956 149.206C280.475 149.235 279.994 149.262 279.515 149.297C279.07 149.33 278.628 149.372 278.185 149.41C277.757 149.447 277.327 149.482 276.9 149.524C276.424 149.571 275.95 149.626 275.475 149.679C275.086 149.723 274.697 149.765 274.309 149.813C273.807 149.875 273.308 149.945 272.808 150.013C272.453 150.062 272.097 150.11 271.744 150.162C271.218 150.24 270.695 150.325 270.171 150.411C269.85 150.463 269.528 150.514 269.207 150.57C268.658 150.665 268.111 150.767 267.565 150.87C267.276 150.925 266.987 150.979 266.699 151.036C266.127 151.15 265.558 151.269 264.99 151.391C264.732 151.446 264.475 151.502 264.218 151.559C263.626 151.691 263.035 151.829 262.447 151.971C262.22 152.025 261.993 152.081 261.767 152.137C261.153 152.289 260.542 152.447 259.931 152.61C259.737 152.662 259.543 152.714 259.35 152.767C258.713 152.941 258.079 153.121 257.447 153.307C257.287 153.353 257.127 153.402 256.967 153.45C256.306 153.646 255.649 153.849 254.994 154.059C254.869 154.099 254.745 154.14 254.62 154.181C253.935 154.403 253.252 154.631 252.574 154.866C252.487 154.896 252.4 154.927 252.313 154.958C251.599 155.207 250.889 155.463 250.183 155.728C250.141 155.743 250.099 155.76 250.057 155.776C230.773 163.02 214.146 175.691 202.044 191.936C201.62 192.505 201.202 193.078 200.789 193.656C200.594 193.929 200.403 194.205 200.211 194.48C199.956 194.845 199.701 195.209 199.45 195.577C199.248 195.874 199.048 196.172 198.849 196.471C198.61 196.828 198.373 197.188 198.139 197.549C197.945 197.847 197.751 198.145 197.561 198.446C197.312 198.836 197.068 199.23 196.825 199.624C196.657 199.895 196.488 200.164 196.323 200.436C195.941 201.069 195.564 201.704 195.194 202.346C195.043 202.608 194.897 202.873 194.748 203.136C194.51 203.556 194.274 203.976 194.042 204.399C193.876 204.702 193.713 205.007 193.55 205.312C193.339 205.706 193.13 206.101 192.925 206.498C192.764 206.806 192.605 207.115 192.447 207.425C192.235 207.844 192.027 208.265 191.821 208.687C191.681 208.973 191.539 209.257 191.401 209.544C191.081 210.212 190.767 210.883 190.461 211.558C190.364 211.772 190.271 211.989 190.175 212.204C189.944 212.723 189.715 213.243 189.492 213.765C189.366 214.061 189.244 214.358 189.121 214.654C188.938 215.095 188.756 215.537 188.579 215.981C188.455 216.29 188.334 216.599 188.212 216.91C188.036 217.363 187.864 217.819 187.693 218.275C187.585 218.567 187.475 218.857 187.368 219.15C187.156 219.736 186.949 220.325 186.746 220.916C186.691 221.077 186.632 221.237 186.578 221.398C186.329 222.134 186.09 222.874 185.858 223.617C185.773 223.889 185.692 224.161 185.609 224.433C185.457 224.932 185.307 225.433 185.163 225.935C185.075 226.238 184.99 226.542 184.905 226.846C184.768 227.337 184.635 227.828 184.506 228.321C184.428 228.615 184.351 228.907 184.276 229.201C184.13 229.777 183.99 230.354 183.853 230.932C183.805 231.141 183.752 231.347 183.704 231.555C183.526 232.332 183.356 233.112 183.195 233.895C183.148 234.123 183.105 234.354 183.059 234.583C182.945 235.154 182.835 235.726 182.73 236.3C182.677 236.593 182.626 236.887 182.575 237.181C182.484 237.708 182.396 238.236 182.313 238.765C182.266 239.06 182.22 239.354 182.176 239.65C182.09 240.227 182.01 240.805 181.933 241.385C181.902 241.623 181.867 241.86 181.837 242.098C181.736 242.91 181.642 243.724 181.558 244.541C181.542 244.696 181.53 244.851 181.515 245.005C181.449 245.675 181.389 246.346 181.336 247.02C181.313 247.3 181.295 247.582 181.275 247.863C181.235 248.423 181.199 248.984 181.168 249.546C181.152 249.845 181.136 250.144 181.122 250.443C181.096 251.021 181.074 251.602 181.057 252.183C181.048 252.447 181.038 252.711 181.032 252.976C181.012 253.815 181 254.656 181 255.5C181 256.255 181.012 257.008 181.028 257.759C181.036 258.097 181.044 258.435 181.055 258.772C181.064 259.062 181.076 259.351 181.087 259.64C181.819 278.776 187.599 296.616 197.134 311.87C197.135 311.872 197.136 311.874 197.137 311.875C198.944 314.765 200.885 317.562 202.953 320.257C202.964 320.272 202.976 320.286 202.987 320.301C205.033 322.965 207.201 325.53 209.485 327.987C209.538 328.044 209.591 328.101 209.644 328.158C210.078 328.622 210.516 329.085 210.958 329.541C210.976 329.561 210.995 329.579 211.013 329.598C212.387 331.016 213.8 332.396 215.25 333.736C215.296 333.779 215.342 333.822 215.389 333.864C215.818 334.26 216.251 334.651 216.687 335.039C216.807 335.146 216.927 335.252 217.047 335.359C217.474 335.735 217.902 336.108 218.334 336.477C218.433 336.563 218.535 336.647 218.635 336.733C220.014 337.903 221.423 339.038 222.861 340.138C223.005 340.248 223.148 340.36 223.292 340.469C223.703 340.78 224.116 341.086 224.532 341.391C224.728 341.535 224.925 341.678 225.121 341.821C225.528 342.115 225.936 342.408 226.346 342.697C226.539 342.832 226.734 342.965 226.928 343.1C228.294 344.046 229.683 344.961 231.094 345.844C231.332 345.993 231.568 346.142 231.807 346.289C232.199 346.53 232.593 346.767 232.988 347.002C233.254 347.161 233.521 347.319 233.789 347.476C234.178 347.703 234.567 347.929 234.959 348.152C235.236 348.309 235.514 348.463 235.792 348.618C237.156 349.377 238.538 350.107 239.938 350.807C240.247 350.961 240.555 351.116 240.865 351.267C241.249 351.455 241.635 351.638 242.02 351.821C242.337 351.971 242.655 352.119 242.974 352.266C243.36 352.444 243.745 352.621 244.134 352.794C244.461 352.94 244.79 353.082 245.119 353.225C245.503 353.392 245.886 353.56 246.273 353.723C246.274 353.723 246.274 353.724 246.276 353.724C258.957 359.053 272.884 362 287.5 362C301.92 362 315.666 359.128 328.209 353.936C328.21 353.935 328.211 353.935 328.212 353.934C328.857 353.667 329.498 353.393 330.137 353.113C330.202 353.085 330.267 353.056 330.332 353.028C330.957 352.753 331.58 352.472 332.199 352.185C332.252 352.161 332.304 352.136 332.357 352.112C335.613 350.598 338.78 348.924 341.848 347.1C341.913 347.061 341.978 347.023 342.042 346.985C342.591 346.657 343.137 346.323 343.68 345.985C343.792 345.916 343.904 345.846 344.015 345.776C344.543 345.445 345.067 345.111 345.588 344.771C345.696 344.7 345.802 344.63 345.91 344.559C346.445 344.207 346.979 343.852 347.508 343.491C347.529 343.476 347.551 343.461 347.573 343.446C349.287 342.273 350.964 341.05 352.605 339.781C352.69 339.716 352.776 339.652 352.861 339.585C353.303 339.241 353.741 338.891 354.177 338.54C354.354 338.398 354.531 338.257 354.708 338.113C355.112 337.784 355.513 337.451 355.912 337.116C356.115 336.946 356.317 336.775 356.519 336.603C356.902 336.277 357.284 335.948 357.664 335.616C357.873 335.433 358.079 335.247 358.287 335.062C358.66 334.73 359.032 334.399 359.4 334.062C359.594 333.884 359.784 333.704 359.977 333.525C360.769 332.789 361.552 332.04 362.323 331.28C362.43 331.175 362.539 331.071 362.646 330.965C362.954 330.658 363.256 330.346 363.56 330.036C363.813 329.778 364.066 329.522 364.316 329.261C364.602 328.964 364.884 328.663 365.165 328.363C365.43 328.081 365.694 327.799 365.955 327.515C366.223 327.222 366.49 326.928 366.756 326.632C367.028 326.329 367.298 326.024 367.567 325.718C367.817 325.433 368.067 325.147 368.316 324.858C368.602 324.524 368.886 324.188 369.168 323.85C369.392 323.583 369.618 323.316 369.84 323.046C370.194 322.615 370.542 322.179 370.889 321.743C371.034 321.561 371.182 321.381 371.326 321.198C371.805 320.589 372.275 319.973 372.74 319.353C372.911 319.127 373.077 318.896 373.246 318.668C373.552 318.252 373.858 317.835 374.159 317.415C374.344 317.157 374.526 316.896 374.709 316.636C374.99 316.237 375.267 315.837 375.542 315.434C375.724 315.167 375.905 314.899 376.085 314.631C376.359 314.221 376.63 313.808 376.898 313.394C377.067 313.134 377.236 312.875 377.402 312.614C377.69 312.161 377.974 311.704 378.256 311.246C378.394 311.022 378.534 310.8 378.67 310.575C379.078 309.902 379.479 309.225 379.872 308.542C379.879 308.531 379.885 308.52 379.892 308.509C379.892 308.508 379.892 308.507 379.892 308.507C388.222 294.02 393.234 277.385 393.913 259.64C393.924 259.351 393.936 259.063 393.945 258.773C393.955 258.435 393.964 258.097 393.972 257.759C393.988 257.008 394 256.255 394 255.5C394 254.656 393.988 253.815 393.968 252.976ZM291.847 182.3L318.719 162.777C321.027 163.555 323.311 164.421 325.568 165.376C337.214 170.302 347.675 177.355 356.66 186.34C361.562 191.243 365.885 196.587 369.605 202.321L360.226 231.934L332.274 241.11L291.847 211.739V182.3ZM218.341 186.34C227.326 177.355 237.786 170.302 249.432 165.376C251.689 164.422 253.973 163.555 256.282 162.777L283.153 182.3V211.739L242.51 241.268L214.818 232.073L205.395 202.322C209.116 196.588 213.439 191.243 218.341 186.34ZM235.434 317.937L208.906 313.735C204.282 307.51 200.421 300.766 197.377 293.567C192.391 281.78 189.816 269.269 189.705 256.369L212.12 240.337L239.828 249.538L255.525 297.846L235.434 317.937ZM329.83 343.7C328.427 344.373 327.007 345.014 325.568 345.623C313.516 350.721 300.708 353.306 287.5 353.306C274.293 353.306 261.484 350.721 249.433 345.623C247.814 344.939 246.22 344.208 244.648 343.442L241.582 324.084L263.247 302.419H314.796L333.419 321.041L329.83 343.7ZM377.623 293.567C375.129 299.464 372.088 305.055 368.529 310.306L339.565 314.893L320.222 295.55L335.256 249.281L362.76 240.251L385.295 256.369C385.184 269.269 382.609 281.78 377.623 293.567Z" fill="#FDFDFD"/>
</svg>
