<svg width="512" height="366" viewBox="0 0 512 366" fill="none" xmlns="http://www.w3.org/2000/svg">
<g clip-path="url(#clip0_24_2)">
<path d="M13.7251 141.606L144.34 11.3889H371.693L499.234 138.189L438.14 199.682L371.694 138.189V355.289H140.526V141.606L77.8942 203.839L13.7251 141.606Z" fill="black"/>
<path d="M509.569 134.875L459.997 85.022L377.902 2.462C377.126 1.68184 376.204 1.06271 375.188 0.64019C374.173 0.217672 373.083 0.000106281 371.983 0H140.014C138.914 -3.35172e-06 137.825 0.217514 136.809 0.640038C135.793 1.06256 134.871 1.68175 134.095 2.462L52.0071 85.015L31.6851 105.454L2.42812 134.874C0.872648 136.438 -0.000488281 138.554 -0.000488281 140.76C-0.000488281 142.966 0.872648 145.082 2.42812 146.646L69.1171 213.714C69.8928 214.494 70.815 215.113 71.8308 215.536C72.8466 215.959 73.9359 216.176 75.0361 216.176C76.1363 216.176 77.2256 215.959 78.2414 215.536C79.2572 215.113 80.1795 214.494 80.9551 213.714L130.463 163.924L131.316 163.066V357.129C131.316 358.225 131.532 359.311 131.951 360.324C132.371 361.337 132.986 362.257 133.761 363.032C134.536 363.807 135.456 364.422 136.469 364.842C137.482 365.261 138.568 365.477 139.664 365.477H333.303C337.914 365.477 333.303 348.777 333.303 348.777H148.011V142.831C148.011 141.178 147.52 139.562 146.6 138.188C145.681 136.814 144.374 135.744 142.846 135.114C141.318 134.484 139.637 134.321 138.016 134.647C136.395 134.973 134.908 135.773 133.742 136.945L124.574 146.165L69.6591 90.937L143.483 16.694H204.46L249.505 72.409C250.287 73.377 251.276 74.1577 252.4 74.6941C253.523 75.2304 254.751 75.5088 255.996 75.5088C257.241 75.5088 258.47 75.2304 259.593 74.6941C260.716 74.1577 261.705 73.377 262.487 72.409L307.532 16.694H368.509L442.333 90.937L387.417 146.165L378.249 136.945C377.083 135.773 375.596 134.973 373.975 134.647C372.355 134.321 370.674 134.484 369.145 135.114C367.617 135.744 366.31 136.814 365.391 138.188C364.471 139.562 363.98 141.178 363.98 142.831V348.781H315.055C310.444 348.781 310.443 365.481 315.055 365.481H372.328C374.542 365.481 376.665 364.601 378.231 363.036C379.797 361.47 380.676 359.347 380.676 357.133V163.065L431.039 213.714C431.815 214.494 432.737 215.113 433.753 215.536C434.769 215.959 435.858 216.176 436.958 216.176C438.058 216.176 439.148 215.959 440.163 215.536C441.179 215.113 442.101 214.494 442.877 213.714L509.566 146.646C511.123 145.083 511.997 142.967 511.997 140.761C511.998 138.555 511.125 136.439 509.569 134.875V134.875ZM75.0341 195.988L20.1171 140.759L37.5631 123.214L92.4791 178.442L75.0341 195.988ZM112.804 158.004L104.252 166.604L49.3361 111.376L57.8881 102.776L112.804 158.004ZM255.997 53.882L225.93 16.693H286.062L255.997 53.882ZM399.19 158.005L454.106 102.776L462.658 111.376L407.742 166.605L399.19 158.005ZM436.96 195.988L419.513 178.442L474.429 123.213L491.876 140.759L436.96 195.988Z" fill="white"/>
</g>
<defs>
<clipPath id="clip0_24_2">
<rect width="511.998" height="365.477" fill="white"/>
</clipPath>
</defs>
</svg>
