<svg width="440" height="340" viewBox="0 0 440 340" fill="none" xmlns="http://www.w3.org/2000/svg">
<rect y="5" width="440" height="335" fill="black"/>
<path d="M435 124V5H5.00049V126" stroke="white" stroke-width="10"/>
<path d="M164.96 38.28L127.84 74.888V83.08H153.44V61.32L163.68 51.08V101H153.44V92.04H118.88V74.632C118.88 73.608 118.88 72.7973 118.88 72.2C118.966 71.6027 119.094 71.0907 119.264 70.664C119.435 70.152 119.691 69.7253 120.032 69.384C120.374 68.9573 120.8 68.4453 121.312 67.848L150.624 38.28H164.96ZM231.46 38.28L194.34 74.888V83.08H219.94V61.32L230.18 51.08V101H219.94V92.04H185.38V74.632C185.38 73.608 185.38 72.7973 185.38 72.2C185.466 71.6027 185.594 71.0907 185.764 70.664C185.935 70.152 186.191 69.7253 186.532 69.384C186.874 68.9573 187.3 68.4453 187.812 67.848L217.124 38.28H231.46ZM296.68 101H251.88V87.56L286.44 62.216V47.24H262.12V56.2H251.88V47.24C251.88 44.7653 252.734 42.6747 254.44 40.968C256.232 39.176 258.366 38.28 260.84 38.28H287.72C290.195 38.28 292.286 39.176 293.992 40.968C295.784 42.6747 296.68 44.7653 296.68 47.24V65.8L262.76 90.76V92.04H296.68V101Z" fill="white"/>
<rect x="435" y="128" width="207" height="430" transform="rotate(90 435 128)" fill="black" stroke="white" stroke-width="10"/>
<rect x="384.077" y="274.24" width="85.4799" height="50.9231" transform="rotate(-90 384.077 274.24)" stroke="white" stroke-width="10"/>
<rect x="424.692" y="248.2" width="33.4" height="10.3077" transform="rotate(-90 424.692 248.2)" stroke="white" stroke-width="10"/>
<path d="M379.078 215.225C374.859 215.225 370.812 216.94 367.829 219.992C364.846 223.044 363.17 227.184 363.17 231.5C363.17 235.816 364.846 239.956 367.829 243.008C370.812 246.06 374.859 247.775 379.078 247.775" stroke="white" stroke-width="10"/>
<rect x="55.9233" y="188.76" width="85.4799" height="50.9231" transform="rotate(90 55.9233 188.76)" stroke="white" stroke-width="10"/>
<rect x="15.3086" y="214.8" width="33.4" height="10.3077" transform="rotate(90 15.3086 214.8)" stroke="white" stroke-width="10"/>
<path d="M60.9238 247.775C65.1428 247.775 69.189 246.06 72.1723 243.008C75.1556 239.956 76.8315 235.816 76.8315 231.5C76.8315 227.184 75.1556 223.044 72.1723 219.992C69.189 216.94 65.1428 215.225 60.9238 215.225" stroke="white" stroke-width="10"/>
<line x1="225.001" y1="123" x2="225.001" y2="340" stroke="white" stroke-width="10"/>
<path d="M225.141 256C210.738 256 199.3 244.678 199.3 231C199.3 217.322 210.738 206 225.141 206C239.544 206 250.982 217.322 250.982 231C250.982 244.678 239.544 256 225.141 256Z" stroke="white" stroke-width="10"/>
</svg>
